<svg width="457" height="35" viewBox="0 0 457 35" fill="none" xmlns="http://www.w3.org/2000/svg">
<path d="M0.115586 28V7H2.42559V16.39H14.4856V7H16.7956V28H14.4856V18.46H2.42559V28H0.115586ZM25.9353 28.27C24.8953 28.27 23.9753 28.08 23.1753 27.7C22.3753 27.32 21.7453 26.8 21.2853 26.14C20.8453 25.46 20.6253 24.68 20.6253 23.8C20.6253 22.92 20.8553 22.16 21.3153 21.52C21.7753 20.86 22.4153 20.35 23.2353 19.99C24.0553 19.63 25.0153 19.45 26.1153 19.45C26.9553 19.45 27.7453 19.54 28.4853 19.72C29.2453 19.9 29.9453 20.19 30.5853 20.59V18.58C30.5853 17.38 30.2653 16.48 29.6253 15.88C28.9853 15.26 28.0453 14.95 26.8053 14.95C26.1253 14.95 25.4253 15.05 24.7053 15.25C24.0053 15.45 23.2253 15.77 22.3653 16.21L21.5553 14.53C23.5153 13.59 25.3553 13.12 27.0753 13.12C28.8953 13.12 30.2953 13.57 31.2753 14.47C32.2553 15.35 32.7453 16.62 32.7453 18.28V28H30.5853V26.29C29.9453 26.95 29.2353 27.45 28.4553 27.79C27.6753 28.11 26.8353 28.27 25.9353 28.27ZM22.7253 23.74C22.7253 24.6 23.0553 25.29 23.7153 25.81C24.3953 26.33 25.2853 26.59 26.3853 26.59C27.2053 26.59 27.9553 26.45 28.6353 26.17C29.3353 25.89 29.9853 25.47 30.5853 24.91V22.09C29.9653 21.73 29.3253 21.47 28.6653 21.31C28.0053 21.13 27.2653 21.04 26.4453 21.04C25.3253 21.04 24.4253 21.29 23.7453 21.79C23.0653 22.27 22.7253 22.92 22.7253 23.74ZM37.1963 28V13.36H39.3863V15.73C39.9463 14.85 40.6163 14.2 41.3963 13.78C42.1763 13.34 43.0563 13.12 44.0363 13.12C45.0963 13.12 46.0163 13.35 46.7963 13.81C47.5963 14.25 48.2163 14.88 48.6563 15.7C49.1163 16.5 49.3463 17.44 49.3463 18.52V28H47.1563V19.15C47.1563 17.85 46.7963 16.83 46.0763 16.09C45.3763 15.33 44.4263 14.95 43.2263 14.95C42.4263 14.95 41.6963 15.14 41.0363 15.52C40.3763 15.9 39.8263 16.46 39.3863 17.2V28H37.1963ZM59.839 28.21C58.579 28.21 57.439 27.88 56.419 27.22C55.399 26.54 54.589 25.64 53.989 24.52C53.389 23.38 53.089 22.11 53.089 20.71C53.089 19.29 53.389 18.02 53.989 16.9C54.609 15.76 55.439 14.86 56.479 14.2C57.519 13.52 58.679 13.18 59.959 13.18C60.859 13.18 61.699 13.36 62.479 13.72C63.259 14.06 63.939 14.56 64.519 15.22V6.34L66.709 5.89V28H64.519V26.05C63.959 26.75 63.279 27.29 62.479 27.67C61.679 28.03 60.799 28.21 59.839 28.21ZM60.379 26.29C61.239 26.29 62.029 26.12 62.749 25.78C63.469 25.44 64.059 24.96 64.519 24.34V17.08C64.039 16.46 63.429 15.98 62.689 15.64C61.969 15.28 61.199 15.1 60.379 15.1C59.399 15.1 58.519 15.34 57.739 15.82C56.979 16.3 56.369 16.96 55.909 17.8C55.469 18.64 55.249 19.6 55.249 20.68C55.249 21.74 55.469 22.7 55.909 23.56C56.369 24.4 56.979 25.07 57.739 25.57C58.519 26.05 59.399 26.29 60.379 26.29ZM71.84 34.57C71.38 34.57 70.91 34.5 70.43 34.36V32.41C70.63 32.45 70.84 32.48 71.06 32.5C71.28 32.52 71.47 32.53 71.63 32.53C72.19 32.53 72.65 32.38 73.01 32.08C73.39 31.78 73.71 31.31 73.97 30.67L75.05 28L69.41 13.36H71.84L76.28 25.39L80.99 13.36H83.42L76.04 31.33C75.72 32.11 75.37 32.74 74.99 33.22C74.61 33.7 74.17 34.04 73.67 34.24C73.17 34.46 72.56 34.57 71.84 34.57ZM86.1514 28V13.36H88.3414V15.64C88.9014 14.8 89.5414 14.17 90.2614 13.75C90.9814 13.33 91.7914 13.12 92.6914 13.12C93.7314 13.12 94.6414 13.38 95.4214 13.9C96.2014 14.4 96.7914 15.09 97.1914 15.97C97.7714 15.03 98.4614 14.32 99.2614 13.84C100.081 13.36 101.021 13.12 102.081 13.12C103.061 13.12 103.921 13.35 104.661 13.81C105.421 14.27 106.011 14.91 106.431 15.73C106.851 16.53 107.061 17.47 107.061 18.55V28H104.871V19.09C104.871 17.81 104.551 16.8 103.911 16.06C103.271 15.32 102.391 14.95 101.271 14.95C100.511 14.95 99.8214 15.14 99.2014 15.52C98.6014 15.9 98.0714 16.48 97.6114 17.26C97.6514 17.46 97.6814 17.67 97.7014 17.89C97.7214 18.11 97.7314 18.33 97.7314 18.55V28H95.5414V19.09C95.5414 17.81 95.2114 16.8 94.5514 16.06C93.9114 15.32 93.0314 14.95 91.9114 14.95C90.4114 14.95 89.2214 15.67 88.3414 17.11V28H86.1514ZM116.023 28.27C114.983 28.27 114.063 28.08 113.263 27.7C112.463 27.32 111.833 26.8 111.373 26.14C110.933 25.46 110.713 24.68 110.713 23.8C110.713 22.92 110.943 22.16 111.403 21.52C111.863 20.86 112.503 20.35 113.323 19.99C114.143 19.63 115.103 19.45 116.203 19.45C117.043 19.45 117.833 19.54 118.573 19.72C119.333 19.9 120.033 20.19 120.673 20.59V18.58C120.673 17.38 120.353 16.48 119.713 15.88C119.073 15.26 118.133 14.95 116.893 14.95C116.213 14.95 115.513 15.05 114.793 15.25C114.093 15.45 113.313 15.77 112.453 16.21L111.643 14.53C113.603 13.59 115.443 13.12 117.163 13.12C118.983 13.12 120.383 13.57 121.363 14.47C122.343 15.35 122.833 16.62 122.833 18.28V28H120.673V26.29C120.033 26.95 119.323 27.45 118.543 27.79C117.763 28.11 116.923 28.27 116.023 28.27ZM112.813 23.74C112.813 24.6 113.143 25.29 113.803 25.81C114.483 26.33 115.373 26.59 116.473 26.59C117.293 26.59 118.043 26.45 118.723 26.17C119.423 25.89 120.073 25.47 120.673 24.91V22.09C120.053 21.73 119.413 21.47 118.753 21.31C118.093 21.13 117.353 21.04 116.533 21.04C115.413 21.04 114.513 21.29 113.833 21.79C113.153 22.27 112.813 22.92 112.813 23.74ZM127.284 28V13.36H129.474V15.73C130.034 14.85 130.704 14.2 131.484 13.78C132.264 13.34 133.144 13.12 134.124 13.12C135.184 13.12 136.104 13.35 136.884 13.81C137.684 14.25 138.304 14.88 138.744 15.7C139.204 16.5 139.434 17.44 139.434 18.52V28H137.244V19.15C137.244 17.85 136.884 16.83 136.164 16.09C135.464 15.33 134.514 14.95 133.314 14.95C132.514 14.95 131.784 15.14 131.124 15.52C130.464 15.9 129.914 16.46 129.474 17.2V28H127.284Z" fill="#00D1FF"/>
<path d="M158.039 28.33C156.399 28.33 154.879 28.04 153.479 27.46C152.079 26.86 150.729 25.96 149.429 24.76L150.839 23.08C152.099 24.26 153.279 25.1 154.379 25.6C155.499 26.1 156.739 26.35 158.099 26.35C159.179 26.35 160.139 26.17 160.979 25.81C161.839 25.43 162.509 24.92 162.989 24.28C163.469 23.64 163.709 22.91 163.709 22.09C163.709 21.03 163.359 20.23 162.659 19.69C161.959 19.13 160.749 18.7 159.029 18.4L155.639 17.83C153.719 17.49 152.309 16.91 151.409 16.09C150.529 15.25 150.089 14.13 150.089 12.73C150.089 11.55 150.389 10.51 150.989 9.61C151.609 8.69 152.459 7.97 153.539 7.45C154.619 6.93 155.869 6.67 157.289 6.67C158.849 6.67 160.299 6.89 161.639 7.33C162.979 7.75 164.299 8.42 165.599 9.34L164.399 11.14C163.319 10.32 162.179 9.7 160.979 9.28C159.779 8.84 158.559 8.62 157.319 8.62C156.339 8.62 155.469 8.79 154.709 9.13C153.969 9.47 153.379 9.93 152.939 10.51C152.519 11.09 152.309 11.75 152.309 12.49C152.309 13.41 152.619 14.13 153.239 14.65C153.859 15.17 154.869 15.54 156.269 15.76L159.629 16.33C161.869 16.73 163.489 17.38 164.489 18.28C165.509 19.16 166.019 20.39 166.019 21.97C166.019 23.19 165.669 24.28 164.969 25.24C164.289 26.2 163.349 26.96 162.149 27.52C160.949 28.06 159.579 28.33 158.039 28.33ZM176.423 28.3C175.063 28.3 173.833 27.97 172.733 27.31C171.633 26.63 170.763 25.72 170.123 24.58C169.483 23.42 169.163 22.12 169.163 20.68C169.163 19.24 169.463 17.95 170.063 16.81C170.683 15.67 171.513 14.77 172.553 14.11C173.593 13.45 174.753 13.12 176.033 13.12C177.333 13.12 178.483 13.45 179.483 14.11C180.503 14.75 181.303 15.63 181.883 16.75C182.483 17.85 182.783 19.1 182.783 20.5V21.16H171.293C171.373 22.16 171.643 23.06 172.103 23.86C172.583 24.64 173.203 25.26 173.963 25.72C174.743 26.16 175.593 26.38 176.513 26.38C177.273 26.38 178.003 26.25 178.703 25.99C179.423 25.71 180.033 25.34 180.533 24.88L181.913 26.35C181.073 27.01 180.203 27.5 179.303 27.82C178.403 28.14 177.443 28.3 176.423 28.3ZM171.353 19.6H180.623C180.523 18.72 180.253 17.94 179.813 17.26C179.393 16.56 178.853 16.01 178.193 15.61C177.553 15.21 176.833 15.01 176.033 15.01C175.233 15.01 174.503 15.21 173.843 15.61C173.183 15.99 172.633 16.53 172.193 17.23C171.773 17.91 171.493 18.7 171.353 19.6ZM186.522 28V13.36H188.712V16.36C189.092 15.34 189.632 14.55 190.332 13.99C191.052 13.41 191.872 13.12 192.792 13.12C193.052 13.12 193.292 13.14 193.512 13.18C193.732 13.2 193.952 13.25 194.172 13.33V15.31C193.932 15.23 193.672 15.17 193.392 15.13C193.132 15.07 192.882 15.04 192.642 15.04C191.742 15.04 190.952 15.3 190.272 15.82C189.612 16.34 189.092 17.07 188.712 18.01V28H186.522ZM201.709 28L195.709 13.36H198.079L202.819 25.27L207.499 13.36H209.839L203.809 28H201.709ZM212.508 28V13.36H214.698V28H212.508ZM213.618 9.73C213.178 9.73 212.798 9.58 212.478 9.28C212.178 8.96 212.028 8.59 212.028 8.17C212.028 7.75 212.178 7.39 212.478 7.09C212.798 6.77 213.178 6.61 213.618 6.61C214.058 6.61 214.428 6.77 214.728 7.09C215.048 7.39 215.208 7.75 215.208 8.17C215.208 8.59 215.048 8.96 214.728 9.28C214.428 9.58 214.058 9.73 213.618 9.73ZM225.758 28.24C224.398 28.24 223.168 27.91 222.068 27.25C220.988 26.57 220.128 25.66 219.488 24.52C218.848 23.36 218.528 22.08 218.528 20.68C218.528 19.26 218.848 17.98 219.488 16.84C220.128 15.7 220.988 14.8 222.068 14.14C223.168 13.46 224.398 13.12 225.758 13.12C226.838 13.12 227.868 13.32 228.848 13.72C229.828 14.12 230.678 14.68 231.398 15.4L229.988 16.93C229.468 16.35 228.838 15.9 228.098 15.58C227.358 15.26 226.608 15.1 225.848 15.1C224.888 15.1 224.018 15.35 223.238 15.85C222.478 16.35 221.868 17.02 221.408 17.86C220.948 18.7 220.718 19.64 220.718 20.68C220.718 21.72 220.948 22.66 221.408 23.5C221.868 24.34 222.478 25.01 223.238 25.51C224.018 26.01 224.888 26.26 225.848 26.26C226.608 26.26 227.358 26.1 228.098 25.78C228.838 25.44 229.468 24.99 229.988 24.43L231.398 25.96C230.678 26.68 229.828 27.24 228.848 27.64C227.868 28.04 226.838 28.24 225.758 28.24ZM240.613 28.3C239.253 28.3 238.023 27.97 236.923 27.31C235.823 26.63 234.953 25.72 234.313 24.58C233.673 23.42 233.353 22.12 233.353 20.68C233.353 19.24 233.653 17.95 234.253 16.81C234.873 15.67 235.703 14.77 236.743 14.11C237.783 13.45 238.943 13.12 240.223 13.12C241.523 13.12 242.673 13.45 243.673 14.11C244.693 14.75 245.493 15.63 246.073 16.75C246.673 17.85 246.973 19.1 246.973 20.5V21.16H235.483C235.563 22.16 235.833 23.06 236.293 23.86C236.773 24.64 237.393 25.26 238.153 25.72C238.933 26.16 239.783 26.38 240.703 26.38C241.463 26.38 242.193 26.25 242.893 25.99C243.613 25.71 244.223 25.34 244.723 24.88L246.103 26.35C245.263 27.01 244.393 27.5 243.493 27.82C242.593 28.14 241.633 28.3 240.613 28.3ZM235.543 19.6H244.813C244.713 18.72 244.443 17.94 244.003 17.26C243.583 16.56 243.043 16.01 242.383 15.61C241.743 15.21 241.023 15.01 240.223 15.01C239.423 15.01 238.693 15.21 238.033 15.61C237.373 15.99 236.823 16.53 236.383 17.23C235.963 17.91 235.683 18.7 235.543 19.6ZM264.194 28.24C262.834 28.24 261.614 27.91 260.534 27.25C259.454 26.59 258.604 25.69 257.984 24.55C257.364 23.41 257.054 22.12 257.054 20.68C257.054 19.24 257.364 17.95 257.984 16.81C258.604 15.67 259.454 14.77 260.534 14.11C261.614 13.45 262.834 13.12 264.194 13.12C265.534 13.12 266.734 13.45 267.794 14.11C268.874 14.77 269.724 15.67 270.344 16.81C270.964 17.95 271.274 19.24 271.274 20.68C271.274 22.12 270.964 23.41 270.344 24.55C269.724 25.69 268.874 26.59 267.794 27.25C266.734 27.91 265.534 28.24 264.194 28.24ZM264.164 26.32C265.124 26.32 265.974 26.08 266.714 25.6C267.454 25.1 268.034 24.42 268.454 23.56C268.894 22.7 269.114 21.74 269.114 20.68C269.114 19.6 268.894 18.64 268.454 17.8C268.034 16.94 267.454 16.27 266.714 15.79C265.974 15.29 265.124 15.04 264.164 15.04C263.204 15.04 262.354 15.29 261.614 15.79C260.874 16.27 260.284 16.94 259.844 17.8C259.424 18.64 259.214 19.6 259.214 20.68C259.214 21.74 259.424 22.7 259.844 23.56C260.284 24.42 260.874 25.1 261.614 25.6C262.354 26.08 263.204 26.32 264.164 26.32ZM276.068 28V15.16H272.798V13.36H276.068V10.3C276.068 8.86 276.448 7.75 277.208 6.97C277.968 6.19 279.048 5.8 280.448 5.8C280.848 5.8 281.208 5.82 281.528 5.86C281.868 5.9 282.168 5.97 282.428 6.07V8.05C282.108 7.95 281.818 7.88 281.558 7.84C281.298 7.8 280.998 7.78 280.658 7.78C279.818 7.78 279.208 7.99 278.828 8.41C278.448 8.81 278.258 9.45 278.258 10.33V13.36H282.428V15.16H278.258V28H276.068ZM292.703 28V7H295.013V28H292.703ZM299.901 28V13.36H302.091V15.73C302.651 14.85 303.321 14.2 304.101 13.78C304.881 13.34 305.761 13.12 306.741 13.12C307.801 13.12 308.721 13.35 309.501 13.81C310.301 14.25 310.921 14.88 311.361 15.7C311.821 16.5 312.051 17.44 312.051 18.52V28H309.861V19.15C309.861 17.85 309.501 16.83 308.781 16.09C308.081 15.33 307.131 14.95 305.931 14.95C305.131 14.95 304.401 15.14 303.741 15.52C303.081 15.9 302.531 16.46 302.091 17.2V28H299.901ZM322.544 28.21C321.284 28.21 320.144 27.88 319.124 27.22C318.104 26.54 317.294 25.64 316.694 24.52C316.094 23.38 315.794 22.11 315.794 20.71C315.794 19.29 316.094 18.02 316.694 16.9C317.314 15.76 318.144 14.86 319.184 14.2C320.224 13.52 321.384 13.18 322.664 13.18C323.564 13.18 324.404 13.36 325.184 13.72C325.964 14.06 326.644 14.56 327.224 15.22V6.34L329.414 5.89V28H327.224V26.05C326.664 26.75 325.984 27.29 325.184 27.67C324.384 28.03 323.504 28.21 322.544 28.21ZM323.084 26.29C323.944 26.29 324.734 26.12 325.454 25.78C326.174 25.44 326.764 24.96 327.224 24.34V17.08C326.744 16.46 326.134 15.98 325.394 15.64C324.674 15.28 323.904 15.1 323.084 15.1C322.104 15.1 321.224 15.34 320.444 15.82C319.684 16.3 319.074 16.96 318.614 17.8C318.174 18.64 317.954 19.6 317.954 20.68C317.954 21.74 318.174 22.7 318.614 23.56C319.074 24.4 319.684 25.07 320.444 25.57C321.224 26.05 322.104 26.29 323.084 26.29ZM333.885 28V13.36H336.075V28H333.885ZM334.995 9.73C334.555 9.73 334.175 9.58 333.855 9.28C333.555 8.96 333.405 8.59 333.405 8.17C333.405 7.75 333.555 7.39 333.855 7.09C334.175 6.77 334.555 6.61 334.995 6.61C335.435 6.61 335.805 6.77 336.105 7.09C336.425 7.39 336.585 7.75 336.585 8.17C336.585 8.59 336.425 8.96 336.105 9.28C335.805 9.58 335.435 9.73 334.995 9.73ZM345.095 28.27C344.055 28.27 343.135 28.08 342.335 27.7C341.535 27.32 340.905 26.8 340.445 26.14C340.005 25.46 339.785 24.68 339.785 23.8C339.785 22.92 340.015 22.16 340.475 21.52C340.935 20.86 341.575 20.35 342.395 19.99C343.215 19.63 344.175 19.45 345.275 19.45C346.115 19.45 346.905 19.54 347.645 19.72C348.405 19.9 349.105 20.19 349.745 20.59V18.58C349.745 17.38 349.425 16.48 348.785 15.88C348.145 15.26 347.205 14.95 345.965 14.95C345.285 14.95 344.585 15.05 343.865 15.25C343.165 15.45 342.385 15.77 341.525 16.21L340.715 14.53C342.675 13.59 344.515 13.12 346.235 13.12C348.055 13.12 349.455 13.57 350.435 14.47C351.415 15.35 351.905 16.62 351.905 18.28V28H349.745V26.29C349.105 26.95 348.395 27.45 347.615 27.79C346.835 28.11 345.995 28.27 345.095 28.27ZM341.885 23.74C341.885 24.6 342.215 25.29 342.875 25.81C343.555 26.33 344.445 26.59 345.545 26.59C346.365 26.59 347.115 26.45 347.795 26.17C348.495 25.89 349.145 25.47 349.745 24.91V22.09C349.125 21.73 348.485 21.47 347.825 21.31C347.165 21.13 346.425 21.04 345.605 21.04C344.485 21.04 343.585 21.29 342.905 21.79C342.225 22.27 341.885 22.92 341.885 23.74ZM356.356 28V13.36H358.546V15.73C359.106 14.85 359.776 14.2 360.556 13.78C361.336 13.34 362.216 13.12 363.196 13.12C364.256 13.12 365.176 13.35 365.956 13.81C366.756 14.25 367.376 14.88 367.816 15.7C368.276 16.5 368.506 17.44 368.506 18.52V28H366.316V19.15C366.316 17.85 365.956 16.83 365.236 16.09C364.536 15.33 363.586 14.95 362.386 14.95C361.586 14.95 360.856 15.14 360.196 15.52C359.536 15.9 358.986 16.46 358.546 17.2V28H356.356ZM377.439 28.27C376.399 28.27 375.479 28.08 374.679 27.7C373.879 27.32 373.249 26.8 372.789 26.14C372.349 25.46 372.129 24.68 372.129 23.8C372.129 22.92 372.359 22.16 372.819 21.52C373.279 20.86 373.919 20.35 374.739 19.99C375.559 19.63 376.519 19.45 377.619 19.45C378.459 19.45 379.249 19.54 379.989 19.72C380.749 19.9 381.449 20.19 382.089 20.59V18.58C382.089 17.38 381.769 16.48 381.129 15.88C380.489 15.26 379.549 14.95 378.309 14.95C377.629 14.95 376.929 15.05 376.209 15.25C375.509 15.45 374.729 15.77 373.869 16.21L373.059 14.53C375.019 13.59 376.859 13.12 378.579 13.12C380.399 13.12 381.799 13.57 382.779 14.47C383.759 15.35 384.249 16.62 384.249 18.28V28H382.089V26.29C381.449 26.95 380.739 27.45 379.959 27.79C379.179 28.11 378.339 28.27 377.439 28.27ZM374.229 23.74C374.229 24.6 374.559 25.29 375.219 25.81C375.899 26.33 376.789 26.59 377.889 26.59C378.709 26.59 379.459 26.45 380.139 26.17C380.839 25.89 381.489 25.47 382.089 24.91V22.09C381.469 21.73 380.829 21.47 380.169 21.31C379.509 21.13 378.769 21.04 377.949 21.04C376.829 21.04 375.929 21.29 375.249 21.79C374.569 22.27 374.229 22.92 374.229 23.74ZM387.95 32.71L389.75 25.78H392.09L389.66 32.71H387.95ZM403.622 28V7H405.932V25.96H417.782V28H403.622ZM421.845 28V7H424.155V25.96H436.005V28H421.845ZM448.117 28.33C446.617 28.33 445.217 28.06 443.917 27.52C442.637 26.96 441.507 26.19 440.527 25.21C439.547 24.21 438.787 23.06 438.247 21.76C437.707 20.44 437.437 19.02 437.437 17.5C437.437 15.98 437.707 14.57 438.247 13.27C438.787 11.95 439.547 10.8 440.527 9.82C441.507 8.82 442.637 8.05 443.917 7.51C445.217 6.95 446.617 6.67 448.117 6.67C449.157 6.67 450.147 6.81 451.087 7.09C452.047 7.35 452.947 7.74 453.787 8.26C454.627 8.76 455.377 9.38 456.037 10.12L454.507 11.71C453.727 10.77 452.767 10.05 451.627 9.55C450.507 9.03 449.337 8.77 448.117 8.77C446.937 8.77 445.837 8.99 444.817 9.43C443.797 9.87 442.907 10.49 442.147 11.29C441.407 12.09 440.827 13.02 440.407 14.08C439.987 15.12 439.777 16.26 439.777 17.5C439.777 18.72 439.987 19.86 440.407 20.92C440.827 21.98 441.407 22.91 442.147 23.71C442.907 24.51 443.797 25.13 444.817 25.57C445.837 26.01 446.937 26.23 448.117 26.23C449.337 26.23 450.507 25.97 451.627 25.45C452.767 24.93 453.727 24.21 454.507 23.29L456.037 24.88C455.377 25.62 454.627 26.25 453.787 26.77C452.947 27.27 452.047 27.66 451.087 27.94C450.147 28.2 449.157 28.33 448.117 28.33Z" fill="white"/>
</svg>
